<svg xmlns="http://www.w3.org/2000/svg" width="28" height="28" viewBox="0 0 28 28">
    <path fill="#52576A" fill-rule="evenodd" d="M8.79 20.248c.997.007 1.801.825 1.8 1.824-.005 1.004-.814 1.82-1.804 1.82-.99-.004-1.795-.822-1.795-1.824.002-1.004.81-1.82 1.8-1.82zm11.002 0c.997.007 1.8.825 1.8 1.824-.004 1.004-.813 1.82-1.804 1.82-.991-.004-1.796-.822-1.796-1.824.003-1.004.81-1.82 1.8-1.82zm-11.001.99c-.446 0-.81.373-.81.831 0 .456.361.83.806.833.446 0 .81-.374.813-.833 0-.455-.362-.829-.81-.831zm11.001 0c-.445 0-.809.373-.81.831 0 .456.362.83.807.833.447 0 .811-.374.813-.833 0-.455-.363-.829-.81-.831zM8.932 10.44c.242 0 .444.175.486.406l.008.089v1.684h1.677c.273 0 .494.222.494.495 0 .243-.175.445-.406.487l-.088.008H9.426v1.685c0 .273-.221.495-.495.495-.243 0-.445-.176-.487-.406l-.008-.09V13.61H6.76c-.273 0-.495-.221-.495-.495 0-.243.175-.445.406-.487l.09-.008h1.675v-1.684c0-.274.222-.495.495-.495zm9.572-1.48c.648 0 1.235.307 1.698.89.373.472 2.627 3.533 3.107 4.353.086.147.09.328.013.478-.079.151-.236.27-.519.27h-6.167c-.3 0-.52-.29-.52-.6l-.003-4.726c0-.369.239-.665.542-.665zm0 .99h-1.438v4.011h4.9c-.801-1.162-2.218-3.09-2.54-3.497-.271-.341-.582-.515-.922-.515zm2.403-4.666c.273 0 .495.222.495.495 0 .242-.176.445-.406.487l-.089.008h-.758c-.273 0-.495-.222-.495-.495 0-.242.175-.445.406-.487l.089-.008h.758zm-8.059 0c.273 0 .495.222.495.495 0 .242-.176.445-.406.487l-.089.008h-.759c-.272 0-.494-.222-.494-.495 0-.242.175-.445.406-.487l.088-.008h.759zm6.788-2.186c.172.17.19.438.058.631l-.058.068-.536.537c-.193.193-.507.193-.7 0-.171-.172-.19-.439-.057-.632l.057-.068.537-.536c.192-.193.507-.193.7 0zm-5.596-.112l.068.057.537.537c.192.193.192.507 0 .7-.172.171-.44.19-.632.057l-.068-.057-.537-.537c-.192-.192-.192-.507 0-.7.172-.17.44-.19.632-.057zM16.554 2c.242 0 .445.176.487.406l.008.089v.758c0 .273-.223.495-.495.495-.243 0-.445-.175-.487-.406l-.008-.089v-.758c0-.273.222-.495.495-.495zm9.673 19.174c-.065.745-.468.61-.75.61H23.65c-.066-.937-.452-1.81-1.11-2.483-.73-.746-1.704-1.159-2.75-1.161-2.04 0-3.713 1.612-3.858 3.644H12.65c-.066-.937-.452-1.81-1.111-2.483-.73-.746-1.704-1.159-2.751-1.161-2.039 0-3.712 1.612-3.856 3.644H2.09c-.633 0-1.1-.532-1.1-.998V9.485c0-1.172.623-1.67 1.756-1.67h16.12c.992 0 1.904.535 2.567 1.503.162.24 3.881 5.315 4.476 6.598.33.583.327 1 .318 1.486 0 .028.06 3.079 0 3.772m-6.426 3.836c-.784 0-1.506-.307-2.05-.862-.544-.558-.844-1.298-.842-2.086.003-1.617 1.295-2.932 2.889-2.932.77.002 1.492.308 2.035.863.546.557.844 1.298.842 2.085-.002 1.617-1.292 2.932-2.874 2.932m-11.003 0c-.783 0-1.505-.307-2.048-.862-.545-.558-.844-1.298-.843-2.086.003-1.617 1.295-2.932 2.888-2.932.77.002 1.493.308 2.037.863.545.557.844 1.298.841 2.085-.002 1.617-1.292 2.932-2.875 2.932m7.746-19.299c.656 0 1.202.485 1.32 1.114h-2.636c.106-.507.547-1.114 1.316-1.114m10.671 11.705c.01-.548.019-1.17-.426-1.952-.617-1.334-4.378-6.466-4.538-6.702-.854-1.25-2.056-1.937-3.384-1.937-.147-1.18-1.126-2.103-2.323-2.103-1.248 0-2.176.978-2.306 2.103H2.746C1.052 6.825 0 7.753 0 9.485v11.334c0 .924.909 1.955 2.09 1.955h2.892c.137.777.5 1.494 1.06 2.066.731.747 1.704 1.159 2.74 1.16 1.91 0 3.49-1.396 3.816-3.226h3.386c.137.777.5 1.494 1.06 2.066.73.747 1.704 1.159 2.74 1.16 1.91 0 3.489-1.396 3.816-3.226h1.877c.947 0 1.643-.426 1.738-1.514.064-.73-.001-3.73 0-3.844"/>
</svg>
