<svg xmlns="http://www.w3.org/2000/svg" xmlns:xlink="http://www.w3.org/1999/xlink" width="30" height="30" viewBox="0 0 30 30">
    <defs>
        <path id="prefix__a" d="M16.854 8.524L1.182 8.523l-.195-.001v-7.08c0-.25.204-.455.455-.455h10.725v4.21c0 .273.222.494.494.494h4.193v2.833zm0 8.192l-15.867.001v-7.21l15.867.002v7.207zm0 .987v3.728c0 .25-.204.455-.456.455H1.442c-.25 0-.455-.204-.455-.455v-3.728h15.867zM4.84 10.859c.534 0 .969.157 1.302.473.199.188.349.455.448.805l-.873.209c-.05-.227-.159-.405-.322-.537-.164-.13-.364-.197-.598-.197-.325 0-.587.117-.788.35-.203.233-.303.61-.303 1.129 0 .55.1.944.298 1.178.198.234.457.352.774.352.234 0 .435-.073.604-.223l.08-.081c.127-.148.222-.355.284-.622l.855.272c-.133.476-.35.83-.655 1.062-.306.23-.693.345-1.161.345-.58 0-1.057-.197-1.43-.593-.374-.397-.56-.937-.56-1.625 0-.727.19-1.29.564-1.695.376-.401.869-.602 1.481-.602zm4.043-.004c.547 0 .961.12 1.238.36.276.243.42.563.436.964l-.881.038c-.039-.224-.12-.384-.243-.483-.123-.1-.31-.148-.558-.148-.257 0-.457.052-.602.158-.094.068-.14.157-.14.271 0 .104.045.19.132.266.111.094.38.19.81.292.43.101.748.207.953.315.205.109.365.256.486.44.116.186.174.418.174.695 0 .25-.07.484-.209.702-.139.218-.336.382-.59.487-.256.107-.572.16-.951.16-.553 0-.976-.127-1.272-.382-.296-.255-.473-.625-.53-1.115l.857-.083c.052.289.157.5.315.634.158.135.37.202.639.202.282 0 .497-.06.64-.18.144-.12.216-.26.216-.42 0-.103-.03-.19-.092-.263-.06-.073-.166-.135-.317-.19-.104-.036-.338-.099-.707-.19-.473-.118-.804-.262-.995-.433-.268-.24-.402-.534-.402-.879 0-.221.065-.43.19-.623s.306-.34.544-.442c.237-.102.523-.153.86-.153zm3.053.08l1.106 3.231 1.068-3.231h.936L13.482 15.3h-.943l-1.56-4.365h.957zm1.218-9.247l3.005 3.015h-3.005V1.688zm4.681 3.467c-.005-.057-.015-.103-.032-.146-.025-.061-.062-.116-.109-.161L13.01.146c-.045-.045-.1-.082-.16-.107-.06-.025-.126-.038-.19-.038L1.444 0C.647 0 0 .647 0 1.442v19.99c0 .795.647 1.442 1.443 1.442H16.61l-.01-.015c.7-.099 1.24-.701 1.24-1.427V5.198l-.006-.043z"/>
    </defs>
    <g fill="none" fill-rule="evenodd" transform="translate(6 4)">
        <use fill="#0D1E42" xlink:href="#prefix__a"/>
    </g>
</svg>
