<svg xmlns="http://www.w3.org/2000/svg" xmlns:xlink="http://www.w3.org/1999/xlink" width="30" height="30" viewBox="0 0 30 30">
    <defs>
        <path id="prefix__a" d="M19.58 11.5c1.1 0 2 .9 2 2v6c0 1.1-.9 2-2 2h-6c-1.102 0-2-.9-2-2v-6c0-1.1.898-2 2-2zM8 11.5c1.1 0 2 .9 2 2v6c0 1.1-.9 2-2 2H2c-1.1 0-2-.9-2-2v-6c0-1.1.9-2 2-2zm11.58 1.2h-6c-.435 0-.8.366-.8.8v6c0 .434.365.8.8.8h6c.433 0 .8-.366.8-.8v-6c0-.434-.367-.8-.8-.8zM8 12.7H2c-.434 0-.8.366-.8.8v6c0 .434.366.8.8.8h6c.434 0 .8-.366.8-.8v-6c0-.434-.366-.8-.8-.8zM19.58 0c1.1 0 2 .9 2 2v6c0 1.1-.9 2-2 2h-6c-1.102 0-2-.9-2-2V2c0-1.1.898-2 2-2zM5 0c2.762 0 5 2.238 5 5s-2.238 5-5 5-5-2.238-5-5 2.238-5 5-5zm14.58 1.2h-6c-.435 0-.8.366-.8.8v6c0 .434.365.8.8.8h6c.433 0 .8-.366.8-.8V2c0-.434-.367-.8-.8-.8zM5 1.2C2.904 1.2 1.2 2.904 1.2 5S2.904 8.8 5 8.8 8.8 7.096 8.8 5 7.096 1.2 5 1.2z"/>
    </defs>
    <g fill="none" fill-rule="evenodd" transform="translate(4 4)">
        <use fill="#52576A" xlink:href="#prefix__a"/>
    </g>
</svg>
