<svg xmlns="http://www.w3.org/2000/svg" width="20" height="20" viewBox="0 0 20 20">
    <path fill="#010202" fill-rule="evenodd" d="M9.236 14.791c.111.112.244.156.389.156.144 0 .278-.056.389-.156l1.855-1.855c.211-.211.211-.567 0-.778-.21-.21-.567-.21-.778 0l-1.466 1.467-.689-.689c-.211-.211-.567-.211-.778 0-.21.21-.21.567 0 .778l1.078 1.077zM10 9c-2.43 0-4.4 1.97-4.4 4.4 0 2.43 1.97 4.4 4.4 4.4 2.43 0 4.4-1.97 4.4-4.4 0-2.43-1.97-4.4-4.4-4.4zm0 .8c1.988 0 3.6 1.612 3.6 3.6S11.988 17 10 17s-3.6-1.612-3.6-3.6S8.012 9.8 10 9.8zm7.727 9.29H2.273c-.753 0-1.364-.61-1.364-1.363v-10h18.182v10c0 .754-.61 1.364-1.364 1.364zM.91 4.092c0-.754.61-1.364 1.364-1.364h1.59v.228c0 .879.713 1.59 1.592 1.59.878 0 1.59-.711 1.59-1.59v-.228h5.91v.228c0 .879.712 1.59 1.59 1.59.88 0 1.59-.711 1.59-1.59v-.228h1.593c.043 0 .087.003.13.007l.041.005c.03.004.06.008.088.014l.047.01.078.02.047.015c.025.008.05.017.074.027l.044.019c.024.01.049.022.073.035l.039.02c.026.015.052.03.077.047l.029.018c.36.245.596.658.596 1.127v2.727H.909V4.091zm3.873-2.5c0-.376.305-.682.682-.682.376 0 .682.306.682.682v1.364c0 .376-.306.682-.682.682-.377 0-.682-.306-.682-.682V1.59zm9.09 0c0-.376.306-.682.682-.682.377 0 .682.306.682.682v1.364c0 .376-.305.682-.682.682-.376 0-.682-.306-.682-.682l.001-1.364zm4.468.313l-.057-.015c-.052-.013-.104-.025-.157-.034-.044-.008-.088-.015-.132-.02l-.067-.007c-.066-.006-.133-.01-.2-.01h-1.591V1.59c0-.879-.712-1.591-1.59-1.591-.88 0-1.592.712-1.592 1.591v.227H7.046V1.59C7.046.712 6.333 0 5.455 0c-.88 0-1.592.712-1.592 1.591v.227h-1.59C1.018 1.818 0 2.836 0 4.09v13.636c0 .603.24 1.181.666 1.607.426.427 1.004.666 1.607.666h15.715l.002-.017c.506-.059.98-.285 1.344-.649.427-.426.666-1.004.666-1.607V4.091c0-1.043-.703-1.92-1.66-2.187z"/>
</svg>
