<svg xmlns="http://www.w3.org/2000/svg" width="20" height="24" viewBox="0 0 20 24">
    <path fill="#727891" fill-rule="evenodd" d="M12.168 16.778c.297 0 .538.234.538.525v.075a.531.531 0 0 1-.538.525H7.09a.531.531 0 0 1-.539-.525v-.075c0-.29.242-.525.539-.525h5.077zm0-3c.297 0 .538.234.538.525v.075a.531.531 0 0 1-.538.525H7.09a.531.531 0 0 1-.539-.525v-.075c0-.29.242-.525.539-.525h5.077zm0-3c.297 0 .538.234.538.525v.075a.531.531 0 0 1-.538.525H7.09a.531.531 0 0 1-.539-.525v-.075c0-.29.242-.525.539-.525h5.077zm5.13-3.37v12.434a.857.857 0 0 1-.866.845H3.466a.857.857 0 0 1-.866-.845V3.379c0-.466.388-.844.866-.844h8.965v4.357c0 .285.238.516.53.516h4.337zm-3.807-1.033V3.29l3.082 3.085H13.49zm4.86.464c-.005-.036-.01-.089-.032-.14a.416.416 0 0 0-.065-.105l-4.916-4.939a.481.481 0 0 0-.313-.144L3.465 1.5c-1.062 0-1.927.843-1.927 1.88v16.462c0 1.036.865 1.877 1.928 1.877h12.966c1.062 0 1.926-.841 1.926-1.877V6.897l-.007-.058z"/>
</svg>
