<svg xmlns="http://www.w3.org/2000/svg" xmlns:xlink="http://www.w3.org/1999/xlink" width="28" height="28" viewBox="0 0 28 28">
    <defs>
        <path id="prefix__a" d="M5.666 16.643c.388 0 .704.316.704.705 0 .39-.316.706-.704.706-.39 0-.708-.316-.708-.706 0-.389.317-.705.708-.705zm7.628.384c.26 0 .47.21.47.47s-.21.47-.47.47H8.122c-.26 0-.47-.21-.47-.47s.21-.47.47-.47zM5.666 12.69c.388 0 .704.317.704.706 0 .39-.316.706-.704.706-.39 0-.708-.315-.708-.706 0-.389.317-.706.708-.706zm7.628.302c.26 0 .47.21.47.47s-.21.47-.47.47H8.122c-.26 0-.47-.21-.47-.47s.21-.47.47-.47zM5.666 8.718c.389 0 .704.317.704.706 0 .39-.315.706-.704.706-.39 0-.708-.317-.708-.706 0-.39.317-.706.708-.706zm7.628.287c.26 0 .47.21.47.47s-.21.471-.47.471H8.122c-.26 0-.47-.21-.47-.47s.21-.47.47-.47zM9.409 2.09c.388 0 .706.316.706.706 0 .389-.318.705-.706.705-.39 0-.706-.316-.706-.705 0-.39.316-.706.706-.706zm8.468 18.618c0 1.297-1.055 2.352-2.352 2.352H3.293c-1.297 0-2.352-1.055-2.352-2.352V5.378c0-1.297.87-2.352 1.94-2.352h2.05V4.33h-.954c-.908 0-1.647.739-1.647 1.646v14.05c0 .907.739 1.646 1.647 1.646H14.84c.908 0 1.647-.739 1.647-1.646V5.975c0-.907-.74-1.646-1.647-1.646h-.98V3.026h1.954c1.137 0 2.063 1.055 2.063 2.352v15.329zM5.4 6.37h7.99c.259 0 .47-.211.47-.47V5.27h.98c.388 0 .705.316.705.705v14.05c0 .389-.317.705-.706.705H3.977c-.39 0-.706-.316-.706-.705V5.975c0-.389.317-.705.706-.705h.953v.63c0 .26.211.47.47.47zm.47-3.345h1.186c.24 0 .443-.182.468-.42.1-.95.894-1.665 1.847-1.665.952 0 1.746.715 1.847 1.664.025.24.227.421.468.421h1.233V5.43H5.87V3.026zm9.943-.94h-3.736C11.759.87 10.662 0 9.372 0S6.984.871 6.666 2.085H2.88C1.292 2.085 0 3.563 0 5.378v15.329C0 22.523 1.477 24 3.293 24h12.232c1.816 0 3.293-1.477 3.293-3.293V5.378c0-1.815-1.348-3.293-3.004-3.293z"/>
    </defs>
    <g fill="none" fill-rule="evenodd" transform="translate(5 2)">
        <use fill="#52576A" xlink:href="#prefix__a"/>
    </g>
</svg>
