<svg xmlns="http://www.w3.org/2000/svg" width="22" height="22" viewBox="0 0 22 22">
    <path fill="#F2F3F5" fill-rule="evenodd" d="M20.42 11.098c-.304.304-1.48 1.393-3.18 1.742-.043-.043-.087-.131-.131-.174l-.13-.131-.393-.393-.044-.043c-.13-.087-.26-.218-.348-.305-.044-.043-.087-.043-.131-.086-.132-.087-.218-.131-.35-.218-.043 0-.043-.043-.086-.043-.131-.087-.305-.175-.436-.218-.043 0-.043-.044-.087-.044-.13-.043-.217-.087-.349-.174-.043 0-.086-.044-.13-.044-.044 0-.044-.043-.087-.043.043 0 .043-.043.087-.043.217-.087.392-.175.61-.262.043 0 .086-.043.086-.043.218-.131.436-.261.61-.392.044-.044.087-.087.132-.087.174-.131.348-.261.522-.436.043 0 .043-.043.087-.043.174-.175.349-.349.522-.567 0-.043.044-.043.044-.043 1.132.218 2.221.828 3.18 1.83l.175.174-.172.086zm-2.7 6.62h-.218c-.48 0-2.179-.086-3.747-1.175-.218-.131-.392-.304-.567-.479l-.086-.087c-.175-.174-.305-.304-.436-.522-.043-.043-.043-.087-.087-.087-.13-.174-.261-.392-.392-.567 0-.043-.043-.043-.043-.086-.087-.218-.218-.393-.305-.61 0 0 0-.044-.043-.044.392-.13.784-.304 1.132-.61.175-.131.305-.305.48-.48.26-.348.478-.696.61-1.132.043 0 .086.044.13.044.044 0 .087.043.131.043l.261.131c.044 0 .087.044.087.044.131.043.262.13.393.217.043 0 .043.044.086.044.087.043.218.131.305.218.043.043.087.043.131.087.087.043.174.13.261.174l.131.13c.087.088.175.132.261.219l.132.13c.13.132.217.262.348.393.785 1.002 1.133 2.265 1.133 3.79l-.001.216h-.088zm-6.622 2.702l-.174.13-.175-.174c-.304-.349-1.394-1.481-1.743-3.18.044-.044.087-.087.175-.131l.13-.132.393-.392v-.043c.131-.131.218-.261.305-.392.043-.044.043-.087.087-.131.087-.087.13-.218.217-.305.044-.043.044-.087.087-.131.087-.131.175-.261.218-.436 0 0 0-.043.044-.043.043-.131.13-.218.174-.349 0-.043.043-.087.043-.131 0-.043.044-.087.044-.131 0 .043.043.043.043.087.087.218.174.392.261.61.044.043.044.086.087.13.131.219.261.437.392.61.044.044.087.088.087.132.131.174.261.349.436.522l.087.087c.174.175.348.349.566.48l.044.043c-.26 1.179-.87 2.268-1.828 3.27zm-6.97-2.701V17.5c0-.479.086-2.221 1.176-3.746.086-.131.174-.261.26-.349.044-.044.044-.087.088-.087l.217-.218.131-.13c.087-.044.131-.132.218-.175.044-.043.087-.087.131-.087.087-.043.131-.13.218-.174.043-.044.087-.044.131-.087.087-.043.174-.087.261-.175.044-.043.087-.043.131-.086.131-.087.261-.131.393-.218h.043c.087-.043.218-.087.305-.131.13.392.304.784.566 1.132.131.175.305.35.436.48.349.304.697.478 1.132.61 0 .043-.043.086-.043.13 0 .044-.043.087-.043.132l-.131.26c0 .044-.044.087-.044.087-.043.132-.13.262-.218.35 0 .043-.043.043-.043.086-.043.087-.131.175-.174.305-.044.043-.044.086-.087.13-.044.088-.131.175-.175.262l-.13.131c-.087.087-.132.174-.219.218l-.13.131c-.132.13-.262.218-.393.304-1.002.785-2.265 1.133-3.79 1.133h-.217zm-2.832-6.796l.174-.174c.305-.305 1.482-1.394 3.181-1.743.043.044.087.131.174.175.044.043.087.086.087.13l.393.393.043.043c.13.087.261.218.349.305.043.043.087.043.13.087.132.086.219.174.35.218.043 0 .043.043.086.043.131.087.305.174.436.218.043 0 .087.043.087.043.13.043.218.087.349.131.043 0 .086.044.13.044.044 0 .044.043.088.043-.044 0-.044.043-.087.043-.218.087-.392.175-.61.262-.044 0-.087.043-.131.043-.218.13-.436.261-.61.392-.044.044-.087.087-.131.087-.175.131-.35.261-.523.436 0 .088-.044.088-.088.131-.174.175-.348.35-.522.567l-.043.044c-1.09-.218-2.18-.828-3.182-1.786l-.13-.175zm2.832-6.796h.218c.479 0 2.221.087 3.746 1.176.13.087.261.175.349.261.043.044.087.044.087.087l.217.218.131.131c.044.087.131.131.175.218l.13.13c.044.088.132.132.175.219.044.043.087.087.087.13.043.087.087.175.174.262.044.043.044.087.087.131.044.131.131.218.175.349v.043c.043.131.086.262.174.392-.392.132-.784.305-1.132.567-.175.131-.305.261-.436.436-.305.349-.48.697-.61 1.089-.043 0-.087-.044-.131-.044-.044 0-.087-.043-.131-.043-.087-.043-.175-.087-.305-.13-.043 0-.043-.044-.087-.044-.13-.044-.26-.131-.392-.218-.043 0-.043-.044-.087-.044-.086-.043-.174-.13-.304-.174-.044-.043-.087-.043-.131-.087-.087-.043-.175-.13-.262-.174l-.13-.131c-.087-.087-.175-.131-.262-.218l-.13-.131c-.132-.131-.219-.261-.35-.392-.784-1.003-1.132-2.265-1.132-3.79l-.001-.218h.088zm6.621-2.7l.174-.131.175.174c.305.305 1.394 1.482 1.742 3.18l-.174.175c-.043.044-.087.044-.087.087l-.392.392-.043.044c-.087.13-.218.26-.305.348-.044.044-.044.087-.087.132l-.261.392-.043.043c-.087.131-.175.305-.218.436 0 .043-.044.087-.044.087-.043.13-.086.217-.174.349 0 .043-.044.086-.044.086 0 .044 0 .044-.043.087 0-.043-.043-.043-.043-.087-.087-.218-.175-.435-.305-.61 0-.043-.043-.043-.043-.087-.131-.217-.262-.435-.392-.61l-.132-.13c-.13-.175-.304-.35-.435-.523l-.044-.044c-.174-.174-.349-.348-.566-.522-.044 0-.044-.043-.044-.043.26-1.135.87-2.224 1.828-3.226zm.392 11.761h-.435c-.436-.043-.828-.217-1.176-.522-.131-.087-.218-.218-.305-.305-.261-.349-.435-.784-.479-1.22v-.392c.044-.436.218-.828.523-1.176.086-.087.174-.218.304-.304.349-.262.74-.436 1.176-.48h.392c.436.044.828.218 1.176.48.087.086.218.174.305.304.261.349.435.74.479 1.176v.392c-.044.436-.218.871-.48 1.176-.086.131-.217.218-.304.305-.348.349-.74.523-1.176.566zm6.578-9.06v.217c0 .48-.087 2.222-1.176 3.746-.086.132-.174.262-.26.35-.044.043-.044.086-.088.13-.043.087-.13.131-.217.218l-.131.131c-.044.044-.132.131-.218.175l-.131.13c-.087.044-.131.132-.218.175-.044.043-.087.087-.131.087-.087.043-.175.087-.261.174-.044.044-.087.044-.131.087-.131.044-.218.131-.35.174h-.043c-.13.044-.26.087-.392.175-.131-.392-.349-.784-.61-1.133-.131-.174-.261-.304-.436-.435-.349-.261-.696-.48-1.089-.61 0-.044.044-.087.044-.131 0-.044.043-.087.043-.131l.131-.262c0-.043.043-.086.043-.086.044-.131.132-.262.218-.393 0-.043.044-.043.044-.086.043-.087.13-.175.174-.305.043-.043.043-.087.087-.131.043-.087.13-.175.174-.261l.131-.131c.087-.087.131-.175.218-.262l.131-.13c.131-.132.262-.218.392-.35 1.003-.784 2.265-1.132 3.79-1.132h.262zm3.964 6.447l-.565-.523c-1.003-1.002-2.135-1.7-3.311-2.004.871-1.611.958-3.224.958-3.703v-.74c0-.305-.218-.523-.522-.523h-.74c-1.439 0-2.701.304-3.747.914-.522-1.742-1.568-2.962-1.917-3.31l-.523-.523c-.217-.217-.522-.217-.74 0l-.524.566C9.05 1.731 8.353 2.864 8.05 4.039c-1.613-.87-3.225-.957-3.703-.957h-.742c-.304 0-.522.218-.522.522v.74c0 1.439.304 2.701.915 3.747-1.743.522-2.963 1.568-3.311 1.917l-.523.522c-.217.218-.217.522 0 .74l.566.524c1.003 1.003 2.135 1.7 3.31 2.004-.914 1.613-.957 3.224-.957 3.703v.74c0 .306.218.524.522.524h.74c1.439 0 2.701-.305 3.747-.915.522 1.743 1.568 2.963 1.917 3.31l.522.523c.087.087.218.131.35.131.13 0 .26-.043.348-.13l.522-.523c1.003-1.002 1.7-2.135 2.004-3.31 1.612.87 3.181.957 3.703.957h.74c.305 0 .523-.218.523-.522v-.74c0-1.439-.305-2.701-.915-3.747 1.743-.522 2.963-1.568 3.31-1.917l.523-.522c.22-.262.22-.611.046-.785z"/>
</svg>
