<svg xmlns="http://www.w3.org/2000/svg" width="42" height="18" viewBox="0 0 42 18">
    <path fill="#FFF" d="M41.295 16c.553 0 1 .448 1 1 0 .513-.386.936-.883.993l-.117.007h-26c-.552 0-1-.448-1-1 0-.513.387-.936.884-.993l.116-.007h26zm-7-8c.553 0 1 .448 1 1 0 .513-.386.936-.883.993l-.117.007h-19c-.552 0-1-.448-1-1 0-.513.387-.936.884-.993L15.295 8h19zM4.265 5.265l1.06 1.06-3.469 3.47 3.47 3.47-1.06 1.06-4.531-4.53 4.53-4.53zM41.295 0c.553 0 1 .448 1 1 0 .513-.386.936-.883.993L41.295 2h-26c-.552 0-1-.448-1-1 0-.513.387-.936.884-.993L15.295 0h26z"/>
</svg>
