<svg xmlns="http://www.w3.org/2000/svg" width="30" height="30" viewBox="0 0 30 30">
    <g fill="#52576A" fill-rule="evenodd">
        <path d="M18.5 23h-4.4c-.331 0-.6.269-.6.6V28l-10.9-.001c-.772 0-1.401-.629-1.401-1.4v-17c0-.772.629-1.401 1.401-1.401H4v3.901c0 .331.269.599.6.599h4.5c.331 0 .599-.268.599-.599v-3.9H11.5v2.4c0 .331.269.599.6.599h3c.331 0 .599-.268.599-.599v-2.4H17.1c.771 0 1.4.629 1.4 1.401V23zm-3.801 4.151v-2.952h2.952l-2.952 2.952zm-9.5-15.652H8.5V8.198H5.199v3.301zM9.699 7H11.5V5.199H9.699V7zm3 2.999H14.5v-1.8h-1.801v1.8zm7-.399c0-1.434-1.166-2.6-2.599-2.6h-1.996l-.004-.001h-2.401V4.6c0-.331-.268-.6-.599-.6h-3c-.331 0-.6.269-.6.6v2.399H2.6c-1.434 0-2.6 1.166-2.6 2.6v17c0 1.433 1.166 2.599 2.6 2.599l11.5.001c.08 0 .159-.016.231-.047.073-.03.138-.074.193-.13l4.996-4.996c.056-.055.102-.122.132-.196.025-.058.033-.12.037-.183.002-.016.01-.031.01-.047v-14z" transform="translate(5)"/>
        <path d="M2.699 4.5H6V1.2H2.699v3.3zM2.1 5.7h4.5c.331 0 .599-.27.599-.6V.6c0-.332-.268-.6-.599-.6H2.1c-.331 0-.6.268-.6.6v4.5c0 .33.269.6.6.6zM15.199 4.5H17V2.7h-1.801v1.8zM14.6 5.7h3c.331 0 .599-.27.599-.6v-3c0-.332-.268-.6-.599-.6h-3c-.331 0-.6.268-.6.6v3c0 .33.269.6.6.6z" transform="translate(5)"/>
    </g>
</svg>
