<svg xmlns="http://www.w3.org/2000/svg" xmlns:xlink="http://www.w3.org/1999/xlink" width="28" height="28" viewBox="0 0 28 28">
    <defs>
        <path id="prefix__a" d="M3.51 21.477c-.257-.08-.432-.227-.624-.522-.185-.283-.164-.883-.157-1.08.01-.276-.207-.5-.483-.517-.29-.017-.502.232-.517.483-.03.517.002 1.176.32 1.66.214.331.54.735 1.16.93.264.083.544-.063.627-.327.083-.264-.063-.544-.327-.627m8.467-16.375L6.338 3.05l.684-1.88 5.638 2.053-.684 1.879zM8.766 11H4.509L6.936 4.33l.749.273 3.01 1.096-1.93 5.3zM4.88 21.675c-.378 1.038-1.527 1.573-2.564 1.195-1.038-.378-1.574-1.526-1.196-2.564L4.145 12h4.257L4.88 21.675zM22.375 0c.276 0 .5.224.5.5v3c0 .276-.224.5-.5.5h-.5v17c0 1.657-1.343 3-3 3s-3-1.343-3-3V4h-.5c-.277 0-.5-.224-.5-.5v-3c0-.276.223-.5.5-.5zM6.253.359c.095-.26.382-.394.641-.299l6.578 2.394c.26.094.394.381.299.64l-1.026 2.82c-.094.26-.381.393-.641.299l-.47-.171L5.82 22.016c-.567 1.558-2.289 2.36-3.846 1.794-1.556-.567-2.36-2.289-1.792-3.846L5.996 3.99l-.47-.17c-.26-.094-.393-.382-.299-.64zM20.875 12h-4v1.716h1.586c.276 0 .5.224.5.5 0 .277-.224.5-.5.5h-1.586v2.099h1.586c.276 0 .5.223.5.5 0 .276-.224.5-.5.5h-1.586v2.099h1.586c.276 0 .5.223.5.5 0 .276-.224.5-.5.5h-1.586V21c0 1.104.895 2 2 2s2-.896 2-2v-9zm0-8h-4v7h4V4zm1-3h-6v2h6V1z"/>
    </defs>
    <g fill="none" fill-rule="evenodd" transform="translate(3 2)">
        <use fill="#52576A" xlink:href="#prefix__a"/>
    </g>
</svg>
