<svg xmlns="http://www.w3.org/2000/svg" width="19" height="18" viewBox="0 0 19 18">
    <path fill="#0D1E42" fill-rule="evenodd" d="M8.618 16.871c0 .062-.031.12-.083.154-.03.019-.065.03-.1.03-.025 0-.05-.006-.073-.015l-6.558-2.818c-.067-.029-.11-.095-.11-.168V1.128c0-.062.03-.119.082-.154.051-.032.117-.038.173-.014l6.558 2.817c.067.029.111.096.111.17V16.87zM11.712 0c.984 0 1.784.8 1.784 1.784v1.784h-.944V1.784c0-.463-.377-.84-.84-.84H5.2c-.088 0-.163.063-.18.147-.018.085.027.172.107.206L8.88 2.91c.414.177.682.585.682 1.036v10.302c0 .101.082.184.184.184h1.966c.463 0 .84-.377.84-.84v-1.784h.944v1.785c0 .983-.8 1.783-1.784 1.783H9.746c-.102 0-.184.083-.184.184v1.311c0 .623-.506 1.129-1.128 1.129-.154 0-.304-.03-.445-.09L1.43 15.09c-.414-.178-.681-.585-.681-1.036V1.128C.75.506 1.255 0 1.877 0zm4.136 4.864l2.827 2.829-2.827 2.828-.668-.668 1.375-1.374c.052-.053.068-.132.04-.2-.029-.069-.096-.114-.17-.114h-3.873V7.22h3.873c.074 0 .141-.045.17-.114.028-.068.012-.147-.04-.2L15.18 5.533l.668-.669z"/>
</svg>
