<svg xmlns="http://www.w3.org/2000/svg" xmlns:xlink="http://www.w3.org/1999/xlink" width="30" height="30" viewBox="0 0 30 30">
    <defs>
        <path id="a" d="M7.009 6.809c.36.003.701.153.952.414.25.261.388.614.383.978a1.376 1.376 0 0 1-.852 1.26 1.338 1.338 0 0 1-1.472-.317c-.381-.4-.49-.993-.274-1.504.217-.51.715-.839 1.263-.831zm9.548 0a1.36 1.36 0 0 1 1.335 1.365 1.376 1.376 0 0 1-.833 1.28 1.338 1.338 0 0 1-1.48-.301 1.39 1.39 0 0 1-.287-1.506 1.352 1.352 0 0 1 1.265-.838zm-4.786 0a1.378 1.378 0 0 1 .508 2.648c-.507.211-1.088.09-1.473-.305a1.39 1.39 0 0 1-.288-1.5 1.354 1.354 0 0 1 1.253-.843zm3.668 7.302H9.417l-.4.354-2.896 2.57v-3.147l-.848-.375c-2.344-1.041-3.86-3.295-3.86-5.743 0-3.493 3.002-6.335 6.69-6.335h7.336c3.69 0 6.691 2.842 6.691 6.335 0 3.494-3.001 6.336-6.691 6.336v.005zm0-14.111H8.104C3.628 0 0 3.48 0 7.77c0 3.131 1.93 5.826 4.708 7.058v2.831c0 .872.34 1.341.855 1.341a1.746 1.746 0 0 0 1.085-.527l3.296-2.933 5.495.001c4.472 0 8.103-3.48 8.103-7.77C23.542 3.479 19.914 0 15.44 0z"/>
    </defs>
    <use fill="#0596FF" fill-rule="evenodd" transform="translate(3 6)" xlink:href="#a"/>
</svg>
