<svg xmlns="http://www.w3.org/2000/svg" xmlns:xlink="http://www.w3.org/1999/xlink" width="28" height="28" viewBox="0 0 28 28">
    <defs>
        <path id="prefix__a" d="M11.96 6.668l.82 2.128c.074.192.253.322.46.334l2.28.123-1.773 1.439c-.16.13-.229.34-.176.54l.59 2.203-1.916-1.24c-.174-.111-.396-.111-.57 0l-1.915 1.24.587-2.203c.053-.2-.014-.41-.173-.54L8.4 9.252l2.278-.122c.206-.012.385-.142.459-.334l.821-2.128zm.001-1.972c-.216 0-.41.132-.489.334l-1.184 3.075-3.293.178c-.216.012-.402.157-.47.36-.064.204 0 .43.168.567l2.56 2.079-.848 3.185c-.057.208.022.43.195.557.176.126.41.134.592.016l2.767-1.792 2.77 1.792c.18.118.416.11.589-.016.175-.127.253-.349.198-.557l-.85-3.185 2.56-2.08c.167-.136.234-.362.167-.566-.066-.203-.253-.348-.467-.36l-3.294-.178-1.186-3.075c-.077-.202-.269-.334-.485-.334zM12 1.044c6.04 0 10.956 4.21 10.956 9.389 0 5.176-4.915 9.387-10.956 9.387-.923 0-1.822-.106-2.747-.322l-.62-.145-.412.481c-.356.418-1.557 1.645-3.534 1.99.38-.681.665-1.374.85-2.07.147-.537.174-.82.18-1.07l.024-.58-.483-.326c-2.678-1.812-4.215-4.49-4.215-7.345 0-5.179 4.916-9.39 10.957-9.39zM12 0C5.389 0 0 4.632 0 10.433c0 3.365 1.842 6.295 4.675 8.209-.004.112.004.295-.142.842-.184.678-.555 1.632-1.305 2.708l-.534.764h.934c3.228 0 5.097-2.105 5.386-2.443.962.226 1.95.348 2.986.348 6.61 0 12-4.632 12-10.43C24 4.632 18.611 0 12 0z"/>
    </defs>
    <g fill="none" fill-rule="evenodd" transform="translate(2 3)">
        <use fill="#52576A" xlink:href="#prefix__a"/>
    </g>
</svg>
