<svg xmlns="http://www.w3.org/2000/svg" xmlns:xlink="http://www.w3.org/1999/xlink" width="30" height="30" viewBox="0 0 30 30">
    <defs>
        <path id="prefix__a" d="M15.325 0c1.185 0 2.168.983 2.168 2.169v3.613c1.503.29 2.66 1.678 2.66 3.355 0 1.649-1.127 3.065-2.66 3.354v3.614c0 1.186-.983 2.169-2.169 2.169-1.127 0-2.052-.868-2.139-1.995-1.707-1.416-3.354-2.226-5.291-2.66l.897 4.684c.058.347-.029.693-.26.982-.232.26-.579.434-.925.434h-2.4c-.578 0-1.071-.404-1.186-.982l-1.042-5.494h-.78C.983 13.243 0 12.259 0 11.045V7.199c0-1.215.984-2.198 2.198-2.198h2.139c3.673 0 6.188-.808 8.848-3.007C13.271.897 14.197 0 15.325 0zM4.336 13.273h-.115l1.012 5.261 2.342-.029-.983-5.088c-.695-.087-1.446-.144-2.256-.144zm10.988-12.03c-.491 0-.925.405-.925.926v13.937c0 .491.434.925.925.925.492 0 .925-.404.925-.925V2.169c0-.491-.433-.926-.925-.926zm6.671 11.36l.096.034 3.73 1.734c.316.145.461.52.287.81-.086.202-.317.347-.549.347-.057 0-.115-.012-.173-.029l-.087-.028-3.729-1.736c-.289-.144-.434-.49-.289-.809.13-.26.424-.403.714-.324zm-8.839-9.046c-2.632 1.908-5.264 2.689-8.848 2.689H2.169c-.521 0-.955.434-.955.954v3.846c0 .549.434.983.955.983h2.139c3.614 0 6.246.78 8.848 2.689zm4.337 3.499v4.163c.81-.289 1.446-1.099 1.446-2.081s-.608-1.793-1.446-2.082zm9.367 1.446c.32 0 .608.29.61.607 0 .287-.212.55-.507.6l-.102.008h-4.135c-.318 0-.607-.26-.607-.608 0-.286.212-.549.506-.598l.101-.009h4.134zm-.752-5.408c.13.262.05.592-.2.76l-.089.05L22.09 5.64c-.086.029-.173.058-.26.058-.232 0-.463-.146-.55-.348-.13-.26-.05-.59.2-.759l.09-.05 3.728-1.736c.29-.143.666-.029.81.29z"/>
    </defs>
    <g fill="none" fill-rule="evenodd" transform="translate(1 5)">
        <use fill="#52576A" xlink:href="#prefix__a"/>
    </g>
</svg>
