<svg xmlns="http://www.w3.org/2000/svg" xmlns:xlink="http://www.w3.org/1999/xlink" width="28" height="28" viewBox="0 0 28 28">
    <defs>
        <path id="prefix__a" d="M11.518 4.382c2.008 0 3.34.703 3.34 1.169 0 .464-1.332 1.167-3.34 1.167-2.007 0-3.34-.703-3.34-1.167 0-.466 1.333-1.169 3.34-1.169m0 3.36c2.158 0 4.343-.753 4.343-2.191 0-1.424-2.238-2.192-4.343-2.192s-4.342.768-4.342 2.192c0 1.438 2.185 2.19 4.342 2.19m7.729 4.717c0 1.522-.982 2.51-2.29 3.153v-1.496c0-.282-.224-.512-.5-.512-.277 0-.502.23-.502.512v1.902c-1.13.383-2.363.584-3.386.683v-2.585c0-.282-.225-.512-.502-.512s-.5.23-.5.512v2.656c-.412.02-.752.026-.96.026H8.178v-2.682c0-.282-.225-.512-.502-.512-.276 0-.5.23-.5.512v2.682H3.788v-2.682c0-.282-.223-.512-.5-.512-.278 0-.502.23-.502.512v2.682H1.002v-5.696h9.419v-.046c.36.028.724.046 1.097.046 3.396 0 6.28-1.175 7.729-2.932v4.29zM3.789 8.168c.63.764 1.533 1.415 2.628 1.91H3.79v-1.91zm7.729-7.145c4.262 0 7.73 2.031 7.73 4.528h-.001v.005c-.007 2.494-3.471 4.523-7.729 4.523-4.262 0-7.729-2.032-7.729-4.528 0-2.497 3.467-4.528 7.729-4.528zM20.25 5.55C20.25 2.439 16.414 0 11.518 0 6.622 0 2.787 2.439 2.787 5.55v4.528H.5c-.276 0-.501.229-.501.511v6.72c0 .281.225.511.501.511h10.105c2.262 0 9.643-.387 9.643-5.362v-6.9l.001-.007z"/>
    </defs>
    <g fill="none" fill-rule="evenodd" transform="translate(4 5)">
        <use fill="#52576A" xlink:href="#prefix__a"/>
    </g>
</svg>
