<svg xmlns="http://www.w3.org/2000/svg" xmlns:xlink="http://www.w3.org/1999/xlink" width="28" height="28" viewBox="0 0 28 28">
    <defs>
        <path id="prefix__a" d="M16.722 3.698c.267.112.573-.014.685-.282.111-.267-.015-.574-.282-.685-1.37-.571-2.853.198-3.785 1.11l-2.885 2.817c-.207.202-.206.528-.01.74.254.273.64.108.742.009L14.07 4.59c.693-.676 1.753-1.265 2.65-.892M12.619 15.97l4.306-4.202c1.494.448 3.107 1.98 3.241 4.202h-7.547zm2.674 4.982c-2.784 0-4.216-2.068-4.574-3.13l.826-.804H20.1c-.35 1.932-2.111 3.934-4.81 3.934zM13.27 2.126c1.248-1.248 4.057-1.664 5.885.165 1.828 1.828 1.497 4.343.17 5.67l-5.503 5.369-6.016-5.872 5.464-5.332zm4.475 8.841l2.312-2.256c1.865-1.823 1.927-5.073-.17-7.17C17.99-.358 14.52-.604 12.54 1.376L1.854 11.804c-2.38 2.32-2.44 5.57-.342 7.668 2.22 2.22 5.706 1.818 7.858-.334l.543-.53C10.368 19.659 12.05 22 15.292 22c3.24 0 5.93-2.639 5.93-5.717 0-1.843-.845-4.083-3.476-5.316z"/>
    </defs>
    <g fill="none" fill-rule="evenodd" transform="translate(3 3)">
        <use fill="#52576A" xlink:href="#prefix__a"/>
    </g>
</svg>
