<?xml version="1.0" encoding="utf-8"?>
<!-- Generator: Adobe Illustrator 23.0.1, SVG Export Plug-In . SVG Version: 6.00 Build 0)  -->
<svg version="1.1" id="Слой_1" xmlns="http://www.w3.org/2000/svg" xmlns:xlink="http://www.w3.org/1999/xlink" x="0px" y="0px"
	 viewBox="0 0 24 24" style="enable-background:new 0 0 24 24;" xml:space="preserve">
<style type="text/css">
	.st0{fill-rule:evenodd;clip-rule:evenodd;fill:#0D1E42;}
</style>
<path class="st0" d="M20,12.6c0.1-0.2,0.2-0.4,0.2-0.6c0-0.2-0.1-0.5-0.2-0.6l-4.8-5.1c-0.3-0.3-1-0.4-1.3-0.1c-0.4,0.3-0.3,1,0,1.3
	l3.4,3.6H3.9C3.4,11.1,3,11.5,3,12c0,0.5,0.4,0.9,0.9,0.9h13.3l-3.4,3.6c-0.4,0.3-0.4,1,0,1.3c0.4,0.3,1,0.2,1.3-0.1L20,12.6
	L20,12.6z"/>
</svg>
