<svg xmlns="http://www.w3.org/2000/svg" width="25" height="17" viewBox="0 0 25 17">
    <path fill="#727891" fill-rule="evenodd" d="M22.076 12.824l-6.322-1.572c.065-.184.146-.365.197-.552.074-.277.13-.556.176-.835l6.676 1.67c-.2.45-.435.884-.727 1.29zm-2.018 1.905l-5.413-1.352c.304-.424.578-.868.8-1.342l6.033 1.501c-.086.092-.157.193-.248.282-.364.353-.76.647-1.172.91zm-3.333 1.113v.003c-.235.018-.498.03-.584.027a7.707 7.707 0 0 1-2.086-.349c-.34-.109-.984-.373-1.008-.414-.009-.013.123-.14.293-.282.261-.22.504-.471.738-.732l4.86 1.214a7.242 7.242 0 0 1-2.213.533zm-4.257-1.457c-.15.113-.283.208-.293.208-.039 0-.526-.385-.803-.632a8.193 8.193 0 0 1-.676-.71l2.395.598a9.466 9.466 0 0 1-.623.536zM9.13 15.79a7.182 7.182 0 0 1-3.786-.493 7.123 7.123 0 0 1-2.4-1.667l7.445 1.842c-.423.14-.853.26-1.259.318zM3.72 2.68c.233-.176.472-.32.71-.465l5.337 1.325c-.306.405-.57.834-.793 1.285L2.993 3.344c.257-.258.534-.515.728-.663zm6.46-1.208c.37.108 1.147.421 1.143.46a1.336 1.336 0 0 1-.209.182c-.114.09-.366.32-.562.513-.065.065-.122.135-.185.2L5.583 1.643a7.046 7.046 0 0 1 2.3-.463 6.738 6.738 0 0 1 2.298.294zm1.816 1.081l.18-.134.31.237c.342.261.698.6 1.013.949l-2.134-.53c.19-.172.433-.375.63-.522zm3.123-1.303a9.117 9.117 0 0 1 1.798-.05 7.253 7.253 0 0 1 4.16 1.863L14.54 1.372c.205-.05.41-.094.578-.12zm7.87 4.71l-8.113-2.013-.021-.036c-.44-.664-1.15-1.442-1.688-1.853a.63.63 0 0 1-.137-.124c0-.007.046-.032.11-.063l8.91 2.306c.25.348.485.712.676 1.106.107.222.18.45.263.678zM16 6.566a8.4 8.4 0 0 0-.572-1.62l7.838 1.945c.113.504.18 1.012.188 1.52l-7.455-1.845zm.162.9L23.41 9.26a7.375 7.375 0 0 1-.297 1.493L16.22 9.027a8.308 8.308 0 0 0-.058-1.561zm-5.444-3.689l3.49.867c.162.294.361.644.382.654.072.03.26.46.416.947v.001c.01.028.018.053.025.08L9.847 5.04c.11-.206.342-.586.532-.865l.338-.4zM9.089 7.241l.002-.024.06-.283a8.82 8.82 0 0 1 .164-.613c.088-.28.113-.328.164-.319.003 0 .032-.074.071-.174l5.678 1.406c.058.327.117.735.128 1.104.01.21.01.373.006.474L9.09 7.242zm-.787 3.018c.124.575.304 1.134.543 1.668l-7.807-1.95C1.01 9.839.97 9.7.951 9.56a7.699 7.699 0 0 1-.062-1.143l7.413 1.843zm-.158-2.393c-.008.118-.025.233-.029.352-.015.384.007.765.046 1.145L.947 7.569c.062-.485.172-.96.329-1.423l6.868 1.72zm.495-2.263c-.17.459-.3.936-.388 1.429L1.589 5.364c.214-.458.477-.896.787-1.312l6.263 1.55zm2.286 9.142l-8.82-2.182a7.373 7.373 0 0 1-.817-1.663l8.094 2.023c.423.68.938 1.3 1.543 1.822zm3.424-2.487v-.001a7.373 7.373 0 0 1-.293.466l-.093.13-.248.291-3.708-.926a855.28 855.28 0 0 1-.306-.524l-.086-.178a9.068 9.068 0 0 1-.359-1.02l5.319 1.323-.03.069c0 .017-.087.184-.196.37zm.656-1.453v.002a1.32 1.32 0 0 1-.092.236l-5.83-1.45a2.698 2.698 0 0 0-.039-.169c-.05-.091-.076-1.333-.028-1.333l.001-.007 6.243 1.564c-.01.099-.018.173-.018.187 0 .09-.137.652-.237.97zm9.239-3.61a8.109 8.109 0 0 0-.728-2.29 7.533 7.533 0 0 0-1.561-2.212 7.677 7.677 0 0 0-1.98-1.485 8.033 8.033 0 0 0-6.973-.234L12.956.96l-.01.037c-.122.055-.246.099-.366.16l-.403.205-.482-.238c-.587-.289-.973-.437-1.518-.577-1.945-.504-3.901-.298-5.67.594-.847.427-1.381.815-2.099 1.53a8.214 8.214 0 0 0-2.29 4.452 8.292 8.292 0 0 0 1.361 6.12l-.006.023.027.007c1.316 1.89 3.361 3.138 5.72 3.433l-.004.002c.13.017.593.026 1.026.02.68-.009.854-.021 1.25-.092a8.132 8.132 0 0 0 2.323-.787l.352-.185.36.186a8.212 8.212 0 0 0 2.883.863c.556.055 1.636.022 2.135-.067a8.014 8.014 0 0 0 2.836-1.053 8.18 8.18 0 0 0 3.297-3.839l.015.004.027-.108a8.412 8.412 0 0 0 .586-2.322c.054-.546.023-1.62-.062-2.134z"/>
</svg>
