<svg xmlns="http://www.w3.org/2000/svg" width="26" height="15" viewBox="0 0 26 15">
    <path fill="#727891" fill-rule="evenodd" d="M9.266 8.824c-.272-.272-.382-.6-.382-1.034 0-.762.708-1.47 1.47-1.47.763 0 1.47.708 1.47 1.47.054.38-.109.762-.38 1.034-.274.272-.6.38-1.144.38-.382.056-.763-.108-1.034-.38m3.701-1.09c0-1.413-1.198-2.611-2.613-2.611-.653 0-1.36.272-1.85.762s-.708 1.143-.762 1.85c0 .654.272 1.36.761 1.85.491.49 1.198.763 1.851.763 1.361.054 2.612-1.198 2.613-2.613M5.728 7.68c0-1.633.653-3.157 1.796-4.3 1.142-1.143 2.667-1.796 4.3-1.796h5.987l-.053 11.657-.002.154h.001l-.001.327-5.932.054c-3.375 0-6.096-2.721-6.096-6.096zm18.124-4.626c.436 0 .871.435.871.87 0 .218-.109.436-.272.599-.163.163-.381.272-.599.272h-4.86l.007-1.741h4.853zm0 7.402c.218 0 .436.109.599.272.163.163.326.435.326.653 0 .218-.109.435-.272.599-.163.163-.381.272-.653.218h-4.888l.006-1.742h4.882zm-4.893 2.939h4.893c1.089 0 2.014-.925 2.014-2.014 0-.544-.218-1.088-.599-1.47-.381-.38-.87-.544-1.415-.544l-4.877-.044.013-3.385h4.919c1.088 0 2.013-.925 2.013-2.014 0-1.088-.924-2.013-2.013-2.013h-4.905l.006-1.524h-7.184c-1.959 0-3.81.762-5.171 2.122-1.236 1.236-1.971 2.878-2.097 4.636-.783.147-1.783.551-2.639 1.406C1.319 9.15.83 9.967.612 11.056l1.142.272c.398-1.985 1.949-2.693 2.804-2.933.317 3.643 3.428 6.525 7.211 6.525h7.185l.005-1.524z"/>
</svg>
