<svg xmlns="http://www.w3.org/2000/svg" xmlns:xlink="http://www.w3.org/1999/xlink" width="28" height="28" viewBox="0 0 28 28">
    <defs>
        <path id="prefix__a" d="M13.598 12.82l-3.09-2.612.07-.082 3.072-3.629.748.633c.24.198.582.168.782-.067.196-.233.166-.584-.067-.782l-.749-.633L15.4 4.423l1.663 1.407c.232.196.583.167.781-.067.197-.232.167-.582-.067-.781l-1.663-1.407 1.477-1.742c.655-.767 1.928-1.068 2.928-.244.886.9.967 1.88.25 2.921l-.007.009-7.082 8.371-.082-.07zm-.48 1.12c-.203 1.357-.877 2.549-1.898 3.358h-.001c-3.086 2.392-5.945 3.6-8.517 3.6-.329 0-.652-.02-.972-.06l-.198-.024 8.258-9.758.082.07 3.254 2.755-.008.06zm1.113.014l.02-.024 7.36-8.697c1.125-1.43.968-3.318-.377-4.487L21.23.742C20.724.265 20.008 0 19.236 0c-.079 0-.157.003-.237.008-.903.063-1.744.477-2.25 1.108L.138 20.749c-.117.147-.162.32-.124.486.038.161.154.297.317.373 3.268 1.081 7.166-.078 11.579-3.445 1.246-.987 2.092-2.51 2.318-4.177l.004-.032z"/>
    </defs>
    <g fill="none" fill-rule="evenodd" transform="translate(3 3)">
        <use fill="#52576A" xlink:href="#prefix__a"/>
    </g>
</svg>
