<?xml version="1.0" encoding="utf-8"?>
<!-- Generator: Adobe Illustrator 23.0.1, SVG Export Plug-In . SVG Version: 6.00 Build 0)  -->
<svg version="1.1" id="Слой_1" xmlns="http://www.w3.org/2000/svg" xmlns:xlink="http://www.w3.org/1999/xlink" x="0px" y="0px"
	 viewBox="0 0 30 30" style="enable-background:new 0 0 30 30;" xml:space="preserve">
<style type="text/css">
	.st0{fill:#52576A;}
	.st1{fill-rule:evenodd;clip-rule:evenodd;fill:#52576A;}
</style>
<g>
	<path class="st0" d="M22.5,1.4H8C6.6,1.4,5.4,2.6,5.4,4v14.5l0,0.2C5.5,20,6.6,21,8,21l3.8,0l3.1,2.3h0.7l3.1-2.3l3.8,0
		c1.4,0,2.6-1.2,2.6-2.6V4C25.1,2.6,23.9,1.4,22.5,1.4z M8,2.6h14.5c0.8,0,1.4,0.6,1.4,1.4v14.5c0,0.8-0.6,1.4-1.4,1.4h-4L18.1,20
		l-2.9,2.1L12.3,20L12,19.9H8c-0.8,0-1.4-0.6-1.4-1.4V4C6.6,3.2,7.2,2.6,8,2.6z M11,26.9c0.3,0,0.6,0.3,0.6,0.6
		c0,0.3-0.2,0.5-0.5,0.6l-0.1,0H8c-0.3,0-0.6-0.3-0.6-0.6c0-0.3,0.2-0.5,0.5-0.6l0.1,0H11z M17,26.9c0.3,0,0.6,0.3,0.6,0.6
		c0,0.3-0.2,0.5-0.5,0.6l-0.1,0h-3c-0.3,0-0.6-0.3-0.6-0.6c0-0.3,0.2-0.5,0.5-0.6l0.1,0H17z M23,26.9c0.3,0,0.6,0.3,0.6,0.6
		c0,0.3-0.2,0.5-0.5,0.6l-0.1,0h-3c-0.3,0-0.6-0.3-0.6-0.6c0-0.3,0.2-0.5,0.5-0.6l0.1,0H23z"/>
	<path class="st1" d="M16.8,10.7c0.6-0.5,1-1.2,1-2.1c0-1.4-1.2-2.6-2.6-2.6c-1.4,0-2.6,1.2-2.6,2.6c0,0.9,0.4,1.6,1,2.1
		c-1.5,0.4-2.7,1.8-2.7,3.5v1.6c0,0.4,0.3,0.7,0.7,0.7h7.2c0.4,0,0.7-0.3,0.7-0.7v-1.6C19.5,12.5,18.4,11.1,16.8,10.7z M15.2,7.3
		C15.2,7.3,15.2,7.3,15.2,7.3L15.2,7.3C15.2,7.3,15.2,7.3,15.2,7.3c0.7,0,1.3,0.6,1.3,1.3c0,0.7-0.6,1.3-1.3,1.3
		c-0.7,0-1.3-0.6-1.3-1.3C13.9,7.9,14.5,7.3,15.2,7.3z M18.2,15.1h-5.9l0-1c0-1.3,1-2.3,2.3-2.3h1.3c1.3,0,2.3,1,2.3,2.3V15.1z"/>
</g>
</svg>
