<svg xmlns="http://www.w3.org/2000/svg" width="30" height="30" viewBox="0 0 30 30">
    <path fill="#0D1E42" fill-rule="evenodd" d="M17.823 6.002l3.293 3.36h-3.293v-3.36zm.551 10.048c2.74 0 4.96 2.221 4.96 4.96 0 1.181-.413 2.266-1.104 3.118l2.665 2.413c.206.203.206.534.002.738v.001c-.206.205-.536.203-.74 0l-2.664-2.414c-.88.715-1.982 1.104-3.119 1.103-2.738 0-4.958-2.22-4.958-4.96 0-2.738 2.22-4.959 4.958-4.959zm-11.263-12l10.215.013c.101 0 .235.059.334.158l5.252 5.38c.02.029.052.067.07.116.024.056.029.113.034.154l.008.062v6.892c-.338-.371-.716-.707-1.134-.99V10.49h-4.633c-.313 0-.568-.251-.568-.562v-4.75H7.11c-.51 0-.926.414-.926.922v17.94c0 .508.415.922.926.922l6.383-.037c.35.44.758.829 1.211 1.16l-7.594.002c-1.137 0-2.06-.917-2.06-2.046V6.099c0-1.13.923-2.05 2.06-2.05zm11.222 13.127c-2.162 0-3.915 1.754-3.915 3.916s1.753 3.914 3.915 3.914 3.915-1.752 3.915-3.914-1.753-3.916-3.915-3.916zm-6.116 2.873c-.05.32-.085.649-.085.984l.005.122.007.12h-1.893c-.253 0-.47-.162-.545-.39l-.022-.088-.008-.094v-.083c0-.253.166-.466.394-.542l.088-.021.093-.008h1.966zm2.396-4c-.46.35-.872.763-1.22 1.226h-3.142c-.285 0-.523-.206-.567-.479l-.008-.093v-.083c0-.285.21-.52.482-.564l.093-.007zm3.21-3.522c.254 0 .468.164.545.391l.022.088.008.093v.081c0 .253-.166.467-.394.543l-.088.022-.093.007H10.25c-.253 0-.469-.163-.545-.39l-.021-.089-.008-.093v-.08c0-.253.165-.468.393-.544l.088-.022.094-.007h7.57z"/>
</svg>
