<svg xmlns="http://www.w3.org/2000/svg" width="30" height="30" viewBox="0 0 30 30">
    <path fill="#0D1E42" fill-rule="evenodd" d="M5.762 10l.108.01c.104.02.202.066.292.138.54.54 1.08 1.072 1.619 1.604.543.536 1.086 1.071 1.633 1.618.181.167.182.346.151.465-.051.2-.229.376-.431.43-.126.034-.313.037-.497-.143l-2.258-2.2V23.7c0 .643.538 1.166 1.198 1.166h14.547c.32 0 .582.254.582.568 0 .313-.261.566-.582.566h-7.697c-.018 0-.032-.008-.049-.01H7.514c-.022 0-.04-.01-.062-.012-1.237-.064-2.226-1.057-2.226-2.278V11.79l-2.283 2.225c-.263.257-.576.181-.768-.007-.102-.1-.165-.229-.174-.355-.01-.141.048-.277.167-.393l3.183-3.102c.131-.106.266-.158.411-.158zm9.517-5c.018 0 .032.008.049.01h6.864c.022 0 .04.01.062.012 1.237.064 2.226 1.057 2.226 2.278v11.91l2.283-2.225c.263-.257.575-.181.768.007.102.1.165.229.174.355.01.141-.048.277-.167.393l-3.183 3.102c-.132.106-.266.158-.412.158-.145 0-.28-.052-.4-.148-.539-.54-1.078-1.072-1.618-1.604-.543-.536-1.086-1.071-1.633-1.618-.181-.167-.182-.346-.151-.465.051-.2.228-.376.431-.43.126-.034.313-.037.497.143l2.258 2.2V7.3c0-.643-.538-1.166-1.198-1.166H7.582c-.32 0-.582-.254-.582-.568C7 5.253 7.261 5 7.582 5z"/>
</svg>
