<svg xmlns="http://www.w3.org/2000/svg" width="19" height="18" viewBox="0 0 19 18">
    <path fill="#0D1E42" fill-rule="evenodd" d="M12.547 9.756c-.213.756-.707 1.384-1.39 1.77-.446.248-.938.376-1.435.376-.267 0-.535-.037-.799-.11-.745-.208-1.39-.715-1.768-1.39-.38-.674-.477-1.49-.268-2.235.21-.745.716-1.39 1.39-1.767.683-.385 1.477-.483 2.234-.268.757.212 1.385.706 1.768 1.39.38.676.477 1.49.268 2.234M10.76 5.234l.012-.043-.013.043c-.345-.096-.697-.144-1.046-.144-.658 0-1.308.17-1.897.501-.9.509-1.55 1.337-1.829 2.333-.278.997-.152 2.042.357 2.943.507.901 1.335 1.552 2.332 1.83.998.28 2.042.153 2.944-.356.901-.507 1.551-1.335 1.83-2.332.274-.983.144-2.056-.356-2.945-.51-.902-1.338-1.552-2.334-1.83m6.544 6.676l-.001.01c-.02.066-.086.109-.153.106l-1.607-.18c-.183-.02-.36.07-.452.229-.29.504-.652.962-1.074 1.36-.13.126-.177.32-.117.494l.54 1.522c.02.067-.007.137-.065.172l-1.384.785-.008.006c-.035.017-.073.022-.11.015-.03-.008-.058-.029-.075-.056l-1.007-1.252-.005-.005c-.114-.149-.305-.213-.485-.164-.56.15-1.14.218-1.72.207-.186-.008-.354.099-.431.265l-.684 1.48c-.023.05-.074.081-.13.081-.013 0-.026-.002-.04-.006l-1.537-.43c-.066-.018-.111-.082-.106-.153l.18-1.605c.02-.182-.07-.36-.229-.452-.491-.28-.944-.625-1.343-1.026-.057-.06-.128-.1-.208-.12-.094-.03-.194-.027-.283.008l-1.528.541c-.03.011-.06.01-.088.001-.036-.011-.067-.036-.086-.069l-.79-1.39c-.034-.06-.019-.14.036-.183l1.245-1.016c.15-.118.213-.312.164-.494-.153-.561-.225-1.138-.216-1.718-.003-.176-.106-.336-.268-.415l-1.472-.702c-.064-.027-.097-.1-.076-.169L2.12 6.05c.02-.067.088-.114.154-.106l1.595.18c.181.02.363-.071.455-.231.284-.504.642-.964 1.063-1.37.131-.127.174-.32.111-.49l-.55-1.543c-.022-.063 0-.134.055-.173l1.405-.782c.033-.02.071-.025.11-.016.033.011.06.03.077.056l1.007 1.258c.118.148.311.212.493.164.53-.144 1.073-.218 1.616-.218.036 0 .074.003.108.001.18 0 .346-.104.425-.265l.688-1.5c.028-.064.1-.1.169-.076l1.542.43c.068.02.112.084.107.153l-.18 1.596v.003c-.02.182.072.36.232.451.516.295.985.662 1.397 1.088.127.132.32.176.493.12l1.519-.546c.03-.01.059-.008.086-.001.038.01.069.036.087.07l.785 1.393c.035.063.02.14-.035.184l-1.261 1.014c-.148.115-.213.304-.165.484.15.562.22 1.14.208 1.722-.006.185.099.354.265.429l1.475.68c.063.029.097.102.075.17l-.426 1.531zm.754-2.542h-.001l-1.161-.55c-.015-.006-.025-.021-.026-.04-.011-.444-.063-.887-.157-1.319-.004-.017.002-.034.015-.045l1.008-.809c.413-.33.523-.906.261-1.367l-.784-1.394c-.26-.46-.809-.663-1.304-.486l-1.218.44c-.02.007-.04.001-.051-.015l-.001-.002c-.327-.31-.69-.594-1.079-.844-.014-.009-.021-.025-.02-.042l.133-1.27c.058-.525-.271-1.01-.78-1.151L11.348.04c-.509-.14-1.04.099-1.267.577l-.559 1.18c-.007.015-.022.028-.04.028-.44.014-.884.07-1.32.167-.016.005-.034 0-.045-.015L7.317.972c-.333-.41-.906-.52-1.365-.258l-1.4.78c-.462.258-.666.805-.486 1.303l.444 1.232c.005.013.003.028-.005.04-.003.005-.007.007-.01.01-.304.324-.577.677-.81 1.048-.01.014-.027.021-.042.02l-1.27-.133H2.37c-.527-.06-1.007.272-1.148.78l-.43 1.538c-.145.51.097 1.042.576 1.267l1.182.56c.015.008.025.023.026.04.014.444.071.888.168 1.319.004.017-.002.034-.016.045l-.997.796c-.41.33-.522.901-.265 1.36l.785 1.393c.258.46.807.665 1.303.487l1.232-.444c.016-.006.034-.001.046.01.314.294.656.561 1.016.793.014.008.022.025.02.043l-.141 1.284c-.057.525.27 1.009.78 1.152l1.542.431c.003 0 .005.002.008.003.5.135 1.028-.103 1.254-.57l.552-1.17c.008-.014.024-.025.04-.025.446-.011.89-.064 1.321-.159.017-.005.033.003.044.017l.82 1.007c.14.174.335.303.55.36.275.076.572.04.817-.101l1.394-.786c.463-.257.667-.805.486-1.304l-.442-1.215c-.007-.016-.002-.034.01-.046.304-.32.58-.672.82-1.047.01-.013.027-.016.043-.02l1.285.141c.525.06 1.009-.27 1.15-.778l.43-1.539.001-.006c.148-.507-.093-1.038-.573-1.262z"/>
</svg>
