<svg xmlns="http://www.w3.org/2000/svg" xmlns:xlink="http://www.w3.org/1999/xlink" width="30" height="30" viewBox="0 0 30 30">
    <defs>
        <path id="prefix__a" d="M12.766 8.866c-.8 0-1.6-.667-1.6-1.467s.667-1.466 1.6-1.466c.8 0 1.6.666 1.6 1.466-.133.8-.8 1.467-1.6 1.467m0-4.133c-1.466 0-2.8 1.2-2.8 2.8 0 1.468 1.2 2.801 2.8 2.801 1.467 0 2.802-1.201 2.802-2.801s-1.335-2.8-2.802-2.8m5.334 7.334c1.066-1.2 1.733-2.8 1.733-4.534C19.833 5.8 19.166 4.2 18.1 3c2.266 1.067 4.4 2.667 6 4.533-1.6 1.867-3.734 3.467-6 4.534m-5.334 1.066c-1.2 0-2.4-.4-3.333-.933C7.833 11.133 6.9 9.4 6.9 7.4c0-3.2 2.666-5.733 5.866-5.733 1.2 0 2.4.4 3.334.933 1.6 1.067 2.533 2.8 2.533 4.8 0 3.2-2.667 5.733-5.867 5.733M1.433 7.4c1.6-2 3.6-3.6 6-4.533-1.2 1.2-1.867 2.8-1.867 4.533 0 1.733.667 3.333 1.734 4.533C5.033 11 3.033 9.4 1.433 7.4m24-.4C22.5 3.267 18.234.733 13.433.333H12.233C7.433.733 3.033 3.267.1 7c-.134.267-.134.533 0 .8 2.933 3.867 7.333 6.267 12.266 6.667h.934c4.8-.4 9.2-2.934 12.133-6.667.135-.267.135-.533 0-.8"/>
    </defs>
    <g fill="none" fill-rule="evenodd" transform="translate(2 8)">
        <use fill="#0D1E42" xlink:href="#prefix__a"/>
    </g>
</svg>
