<svg xmlns="http://www.w3.org/2000/svg" xmlns:xlink="http://www.w3.org/1999/xlink" width="30" height="30" viewBox="0 0 30 30">
    <defs>
        <path id="prefix__a" d="M.372 8.072c-1.553 5.8 1.9 11.783 7.7 13.337 5.8 1.548 11.785-1.9 13.339-7.7.127-.475.222-.959.284-1.438.022-.17-.024-.338-.128-.472-.104-.136-.255-.222-.424-.244-.17-.016-.337.024-.472.127-.135.105-.222.255-.243.425-.056.432-.141.86-.25 1.272-1.373 5.12-6.655 8.171-11.775 6.797-5.12-1.372-8.17-6.654-6.798-11.775.666-2.484 2.256-4.559 4.476-5.84 2.222-1.283 4.814-1.624 7.298-.957 1.104.295 2.139.784 3.078 1.453l.144.103-1.155 1.156c-.17.17-.23.407-.16.637.07.23.25.393.486.44l4.182.838c.212.045.423-.02.577-.174.154-.154.218-.365.175-.578L19.87 1.3c-.061-.3-.322-.514-.625-.514l-.02.001c-.162.004-.316.07-.434.185l-1.274 1.276-.104-.078C16.302 1.337 15.056.731 13.71.371 13 .181 12.269.062 11.536.02c-.323-.018-.64-.024-.944-.014L10.45.01C5.729.203 1.597 3.501.372 8.072"/>
    </defs>
    <g fill="none" fill-rule="evenodd" transform="translate(4 4)">
        <use fill="#0D1E42" xlink:href="#prefix__a"/>
    </g>
</svg>
