<svg xmlns="http://www.w3.org/2000/svg" width="27" height="20" viewBox="0 0 27 20">
    <path fill="#0596FF" fill-rule="evenodd" d="M5.25 11.418c-.107.006-.208.075-.28.19-.073.114-.11.266-.105.423.004.155.052.3.132.405.079.105.184.159.292.152h6.88c.108.002.212-.058.29-.168.076-.11.12-.26.12-.418 0-.156-.044-.305-.12-.417-.078-.11-.182-.17-.29-.167h-6.88c-.014-.002-.026-.002-.039 0zm.073-3.513c-.127.006-.248.075-.333.19-.087.115-.13.267-.125.423.005.155.062.3.157.405.094.105.219.16.347.153h15.4c.13.002.253-.06.346-.169.09-.11.142-.26.142-.417 0-.156-.052-.307-.142-.418-.093-.11-.216-.17-.346-.167H5.323zm0-3.513c-.127.007-.248.075-.333.19-.087.115-.13.268-.125.423.005.155.062.301.157.405.094.106.219.159.347.153h15.4c.13.001.253-.059.346-.168.09-.11.142-.261.142-.418 0-.157-.052-.306-.142-.417-.093-.11-.216-.171-.346-.168H5.323zm-4.137-3.22h23.71v14.636h-8.298c-.139 0-.274.05-.38.137l-3.177 2.616-3.176-2.616c-.107-.087-.241-.137-.38-.137h-8.3l.001-14.636zM.537.002C.231.028 0 .282 0 .585v15.808c0 .323.265.586.593.586h8.679l3.39 2.79c.22.18.54.18.759 0l3.39-2.79h8.679c.328 0 .593-.263.593-.586V.586c0-.324-.265-.585-.593-.585H.538z"/>
</svg>
