<svg xmlns="http://www.w3.org/2000/svg" xmlns:xlink="http://www.w3.org/1999/xlink" width="30" height="30" viewBox="0 0 30 30">
    <defs>
        <path id="a" d="M9.057 9.57V5.43l3.586 2.07-3.586 2.07zm5.224-2.638L8.73 3.727a.655.655 0 0 0-.982.567v6.412a.656.656 0 0 0 .982.567l5.552-3.205a.657.657 0 0 0 0-1.136zm6.032 4.214a2.547 2.547 0 0 1-2.544 2.544H3.854a2.547 2.547 0 0 1-2.544-2.544V3.854A2.547 2.547 0 0 1 3.854 1.31H17.77a2.546 2.546 0 0 1 2.544 2.544v7.292zM17.769 0H3.854A3.866 3.866 0 0 0 0 3.854v7.292A3.866 3.866 0 0 0 3.854 15H17.77a3.866 3.866 0 0 0 3.854-3.854V3.854A3.866 3.866 0 0 0 17.77 0z"/>
    </defs>
    <use fill="#0596FF" fill-rule="evenodd" transform="translate(4 8)" xlink:href="#a"/>
</svg>
