<svg xmlns="http://www.w3.org/2000/svg" xmlns:xlink="http://www.w3.org/1999/xlink" width="24" height="24" viewBox="0 0 24 24">
    <defs>
        <path id="a" d="M17.455 0c1.054 0 1.908.855 1.908 1.91v.271h1.91a2.71 2.71 0 0 1 .667.086c.023.006.046.011.068.018A2.727 2.727 0 0 1 24 4.909v16.364a2.728 2.728 0 0 1-2.412 2.707l-.002.02H2.728A2.726 2.726 0 0 1 0 21.273V4.909a2.728 2.728 0 0 1 2.728-2.728h1.908V1.91a1.91 1.91 0 0 1 3.819 0v.272h7.09V1.91A1.91 1.91 0 0 1 17.455 0zm5.454 9.273H1.09v12c0 .904.733 1.636 1.637 1.636h18.545c.904 0 1.636-.732 1.636-1.636v-12zm-10.091 7.909c.302 0 .545.301.545.545v1.636a.545.545 0 0 1-.545.545h-1.636c-.302 0-.546-.301-.546-.545v-1.636c0-.302.245-.545.546-.545zm6.545 0c.302 0 .545.301.545.545v1.636a.545.545 0 0 1-.545.545h-1.636c-.302 0-.545-.301-.545-.545v-1.636c0-.302.244-.545.545-.545zm-13.09 0c.301 0 .545.301.545.545v1.636a.545.545 0 0 1-.546.545H4.636c-.302 0-.545-.301-.545-.545v-1.636c0-.302.244-.545.545-.545zm6.545-5.455c.302 0 .545.302.545.546v1.636a.545.545 0 0 1-.545.545h-1.636c-.302 0-.546-.302-.546-.545v-1.636c0-.302.245-.546.546-.546zm6.545 0c.302 0 .545.302.545.546v1.636a.545.545 0 0 1-.545.545h-1.636c-.302 0-.545-.302-.545-.545v-1.636c0-.302.244-.546.545-.546zm-13.09 0c.301 0 .545.302.545.546v1.636a.545.545 0 0 1-.546.545H4.636c-.302 0-.545-.302-.545-.545v-1.636c0-.302.244-.546.545-.546zM4.635 3.273H2.728c-.904 0-1.637.732-1.637 1.636v3.273H22.91V4.909c0-.562-.284-1.058-.715-1.352l-.035-.022a1.582 1.582 0 0 0-.092-.056l-.047-.025a1.531 1.531 0 0 0-.23-.097l-.056-.017-.094-.024-.055-.013a2.007 2.007 0 0 0-.106-.016l-.048-.006a1.627 1.627 0 0 0-.158-.008h-1.91v.273a1.908 1.908 0 1 1-3.818 0v-.273h-7.09v.273a1.909 1.909 0 0 1-3.819 0v-.273zm1.92-2.182a.818.818 0 0 0-.817.819v1.636a.819.819 0 0 0 1.636 0V1.91a.819.819 0 0 0-.818-.819zm10.91 0a.819.819 0 0 0-.82.819h.002l-.001 1.636a.819.819 0 0 0 1.637 0V1.91a.818.818 0 0 0-.819-.819z"/>
    </defs>
    <use fill="#ACB2C3" fill-rule="evenodd" xlink:href="#a"/>
</svg>
