<svg xmlns="http://www.w3.org/2000/svg" xmlns:xlink="http://www.w3.org/1999/xlink" width="26" height="25" viewBox="0 0 26 25">
    <defs>
        <path id="a" d="M8.34 17.553l11.397-11.4v6.679H21V4h-8.843v1.263h6.682L7.447 16.659a.633.633 0 0 0 .892.894zm-4.123 3.603H24.13V1.244H4.217v19.912zm12.446 2.6H1.243V8.711h1.73v12.942c0 .412.335.747.747.747h12.943v1.356zM4.093 0a1.12 1.12 0 0 0-1.12 1.12v6.347H1.12A1.12 1.12 0 0 0 0 8.587V23.88C0 24.499.501 25 1.12 25h15.667a1.12 1.12 0 0 0 1.12-1.12V22.4h6.346a1.12 1.12 0 0 0 1.12-1.12V1.12A1.12 1.12 0 0 0 24.253 0H4.093z"/>
    </defs>
    <use fill="#ACB2C3" fill-rule="evenodd" xlink:href="#a"/>
</svg>
