<svg xmlns="http://www.w3.org/2000/svg" xmlns:xlink="http://www.w3.org/1999/xlink" width="24" height="24" viewBox="0 0 24 24">
    <defs>
        <path id="a" d="M12.882 13.247h-2.129l.346-2.494h2.129l-.346 2.494zM19.317 0C21.9 0 24 2.1 24 4.683v14.634C24 21.9 21.9 24 19.317 24H4.683A4.688 4.688 0 0 1 0 19.317V4.683C0 2.1 2.1 0 4.683 0zm0 1.133H4.683a3.554 3.554 0 0 0-3.55 3.55v14.634a3.554 3.554 0 0 0 3.55 3.55h14.634a3.553 3.553 0 0 0 3.55-3.55V4.683a3.553 3.553 0 0 0-3.55-3.55zm-7.451 4.154l-.575 4.028h2.128l.556-4.028h1.554l-.575 4.028h1.84l-.19 1.438h-1.842l-.345 2.494h1.822l-.192 1.438h-1.822l-.575 4.028h-1.535l.556-4.028h-2.11l-.575 4.028H8.452l.556-4.028H7.205l.192-1.438h1.822l.345-2.494H7.761l.192-1.438h1.803l.556-4.028h1.554z"/>
    </defs>
    <use fill="#ACB2C3" fill-rule="evenodd" xlink:href="#a"/>
</svg>
