<svg xmlns="http://www.w3.org/2000/svg" width="26" height="17" viewBox="0 0 26 17">
    <g fill="none" fill-rule="evenodd">
        <path fill="#000" d="M8.359 1C4.301 1 1 4.301 1 8.359s3.301 7.359 7.359 7.359 7.359-3.301 7.359-7.359S12.417 1 8.359 1m0 15.718C3.75 16.718 0 12.968 0 8.359S3.75 0 8.359 0s8.359 3.75 8.359 8.359-3.75 8.359-8.359 8.359"/>
        <path fill="#F2F3F5" d="M16.218 8.359a7.86 7.86 0 1 1-15.72-.001 7.86 7.86 0 0 1 15.72 0"/>
        <path fill="#F2F3F5" d="M16.708.5a7.812 7.812 0 0 0-4.174 1.208 7.843 7.843 0 0 1 0 13.301 7.804 7.804 0 0 0 4.174 1.209 7.86 7.86 0 0 0 0-15.718"/>
        <path fill="#ACB2C3" d="M13.473 14.962a7.314 7.314 0 0 0 3.235.755c4.057 0 7.359-3.3 7.359-7.359 0-4.057-3.302-7.358-7.36-7.358a7.317 7.317 0 0 0-3.234.755 8.305 8.305 0 0 1 3.245 6.603 8.304 8.304 0 0 1-3.245 6.604m3.235 1.755a8.328 8.328 0 0 1-4.441-1.285l-.672-.423.672-.423a7.323 7.323 0 0 0 3.45-6.228 7.325 7.325 0 0 0-3.45-6.227l-.672-.423.672-.423A8.333 8.333 0 0 1 16.707 0c4.61 0 8.36 3.75 8.36 8.358 0 4.61-3.75 8.36-8.36 8.36"/>
        <path fill="#F2F3F5" d="M8.849 8.359a7.845 7.845 0 0 1 3.685-6.65A7.81 7.81 0 0 0 8.359.499a7.86 7.86 0 0 0 0 15.719 7.81 7.81 0 0 0 4.175-1.21 7.844 7.844 0 0 1-3.685-6.65"/>
        <path fill="#ACB2C3" d="M8.359 1C4.301 1 1 4.301 1 8.359s3.301 7.359 7.359 7.359c1.124 0 2.228-.26 3.235-.756a8.302 8.302 0 0 1-3.245-6.603 8.308 8.308 0 0 1 3.244-6.604A7.31 7.31 0 0 0 8.359 1m0 15.718C3.75 16.718 0 12.968 0 8.359S3.75 0 8.359 0c1.568 0 3.104.444 4.44 1.285l.673.423-.673.424a7.324 7.324 0 0 0-3.45 6.227c0 2.54 1.29 4.868 3.45 6.227l.673.423-.673.424a8.334 8.334 0 0 1-4.44 1.285"/>
        <path fill="#F2F3F5" d="M16.218 8.359a7.845 7.845 0 0 0-3.685-6.65 7.844 7.844 0 0 0 0 13.3 7.844 7.844 0 0 0 3.685-6.65"/>
        <path fill="#ACB2C3" d="M12.533 2.307A7.319 7.319 0 0 0 9.348 8.36a7.319 7.319 0 0 0 3.185 6.052 7.319 7.319 0 0 0 3.185-6.052 7.319 7.319 0 0 0-3.185-6.052zm0 13.293l-.266-.168A8.316 8.316 0 0 1 8.348 8.36a8.319 8.319 0 0 1 3.92-7.074l.265-.167.266.167a8.319 8.319 0 0 1 3.92 7.074 8.316 8.316 0 0 1-3.92 7.073l-.266.168z"/>
    </g>
</svg>
