<svg xmlns="http://www.w3.org/2000/svg" xmlns:xlink="http://www.w3.org/1999/xlink" width="24" height="24" viewBox="0 0 24 24">
    <defs>
        <path id="a" d="M11.634 7.088l1.98 5.901h-3.99l2.01-5.901zM19.317 0C21.9 0 24 2.1 24 4.683v14.635C24 21.899 21.9 24 19.317 24H4.683A4.688 4.688 0 0 1 0 19.318V4.683C0 2.1 2.1 0 4.683 0zm0 1.133H4.683a3.553 3.553 0 0 0-3.55 3.55v14.635a3.553 3.553 0 0 0 3.55 3.549h14.634a3.553 3.553 0 0 0 3.55-3.55V4.684a3.553 3.553 0 0 0-3.55-3.55zm-6.648 3.79l4.194 12.31 1.511.183v.787h-5.312v-.787l1.96-.234-1.104-3.288H9.317l-1.11 3.257 1.944.265v.787H5.626v-.787l1.654-.248 4.209-12.244h1.18z"/>
    </defs>
    <use fill="#0D1E42" fill-rule="evenodd" xlink:href="#a"/>
</svg>
