<svg xmlns="http://www.w3.org/2000/svg" width="28" height="30" viewBox="0 0 28 30">
    <g fill="none" fill-rule="evenodd">
        <ellipse cx="17.5" cy="11.538" fill="#FFBD42" rx="5.833" ry="5.769"/>
        <path fill="#000" d="M13.952 6.563c4.046 0 7.346 3.265 7.346 7.267a6.269 6.269 0 0 1-.225 1.727c-.194.928-.55 1.503-1.036 2.305-.097.192-.228.383-.356.607-.162.258-.324.513-.454.738-.646 1.024-1.035 1.665-1.035 2.912v3.01c0 .735-.55 1.376-1.295 1.504-.291 1.632-1.293 2.657-2.945 2.657-1.651 0-2.623-1.025-2.946-2.657-.746-.128-1.295-.736-1.295-1.504v-3.01c0-1.249-.389-1.857-1.035-2.912-.162-.225-.292-.48-.454-.738-.13-.224-.259-.414-.356-.607-.485-.802-.84-1.377-1.035-2.305a6.317 6.317 0 0 1-.227-1.727c0-4.002 3.302-7.267 7.348-7.267zM15.604 26.7h-3.27c.355 1.344 1.26 1.344 1.618 1.344h.054c.39-.003 1.258-.064 1.598-1.344zm1.292-2.53h-5.89v.993c0 .128.097.256.259.256h5.373c.161 0 .29-.13.258-.256v-.994zm4.112-3.362a.63.63 0 0 1 .907 0l1.907 1.888a.614.614 0 0 1 0 .897.64.64 0 0 1-.452.193.646.646 0 0 1-.453-.193l-1.909-1.889a.612.612 0 0 1 0-.896zm-15.02 0c.228-.257.648-.257.906 0a.614.614 0 0 1 0 .896l-1.909 1.889a.644.644 0 0 1-.454.193.644.644 0 0 1-.451-.193.614.614 0 0 1 0-.897zm10.94.928h-5.922c.032.128.032.256.032.416v.736h5.86l-.002-.736c0-.16.033-.288.033-.416zM14.016 7.842c-3.335 0-6.053 2.689-6.053 5.988 0 .48.065.96.195 1.44.162.736.42 1.185.874 1.953.096.16.227.383.355.607.131.256.293.48.422.705.422.64.745 1.214.971 1.888h6.409c.226-.672.583-1.249.972-1.888.13-.192.259-.449.42-.705.13-.224.228-.414.357-.607.452-.737.711-1.217.874-1.921.128-.512.193-.992.256-1.472 0-3.3-2.718-5.988-6.052-5.988zm13.272 5.347c.357 0 .647.289.647.64 0 .352-.29.64-.647.64H24.6a.645.645 0 0 1-.648-.64c0-.353.292-.64.648-.64zm-23.953 0c.357 0 .648.289.648.64 0 .352-.29.64-.648.64H.647a.645.645 0 0 1-.647-.64c0-.353.292-.64.647-.64zm.743-9.122a.632.632 0 0 1 .908 0l1.909 1.888a.614.614 0 0 1 0 .897.638.638 0 0 1-.453.192.645.645 0 0 1-.453-.192l-1.91-1.889a.614.614 0 0 1 0-.896zm18.839-.001a.629.629 0 0 1 .906 0c.26.256.26.64 0 .896L21.914 6.85a.637.637 0 0 1-.453.193.64.64 0 0 1-.454-.193.613.613 0 0 1 0-.896zM13.952 0c.357 0 .647.287.647.64v2.657c0 .353-.29.641-.647.641a.646.646 0 0 1-.648-.641V.64c0-.353.29-.64.648-.64z"/>
    </g>
</svg>
